<svg width="47" height="47" viewBox="0 0 47 47" fill="none" xmlns="http://www.w3.org/2000/svg">
    <g clip-path="url(#clip0_27_1672)">
        <path
            d="M46.9216 42.206C38.372 29.1431 37.647 19.9992 45.4651 6.22443C45.5272 6.04357 45.5264 5.84704 45.4628 5.66669C45.3993 5.48633 45.2768 5.3327 45.115 5.23067C44.9533 5.12865 44.7619 5.0842 44.5717 5.10453C44.3816 5.12486 44.2039 5.20878 44.0674 5.34269L29.9987 19.4048C28.9131 20.4912 28.3032 21.9642 28.3032 23.5C28.3032 25.0358 28.9131 26.5088 29.9987 27.5952L45.5435 43.1399C45.6834 43.2774 45.8665 43.3622 46.0618 43.3799C46.2572 43.3976 46.4526 43.3472 46.6149 43.2372C46.7773 43.1272 46.8965 42.9643 46.9524 42.7763C47.0083 42.5884 46.9974 42.3868 46.9216 42.206Z"
            fill="#08BC51" />
        <path
            d="M42.2059 46.9216C29.1431 38.372 19.9991 37.647 6.22439 45.4651C6.04352 45.5272 5.847 45.5264 5.66664 45.4628C5.48628 45.3993 5.33265 45.2768 5.23063 45.115C5.1286 44.9533 5.08415 44.7619 5.10448 44.5717C5.12482 44.3816 5.20873 44.2039 5.34265 44.0674L19.4048 29.9987C20.4911 28.9131 21.9641 28.3032 23.5 28.3032C25.0358 28.3032 26.5088 28.9131 27.5951 29.9987L43.1399 45.5435C43.2774 45.6834 43.3621 45.8665 43.3799 46.0618C43.3976 46.2572 43.3472 46.4526 43.2371 46.6149C43.1271 46.7773 42.9643 46.8965 42.7763 46.9524C42.5883 47.0083 42.3868 46.9974 42.2059 46.9216Z"
            fill="#08BC51" />
        <path
            d="M4.8006 0.0783744C17.8634 8.62799 27.0074 9.35297 40.7821 1.54141C40.9636 1.47466 41.1626 1.47237 41.3455 1.53494C41.5285 1.59751 41.6844 1.72112 41.7871 1.88502C41.8897 2.04893 41.9328 2.24315 41.9092 2.43509C41.8856 2.62703 41.7966 2.805 41.6573 2.93913L27.5952 16.9817C26.5088 18.0673 25.0359 18.6772 23.5 18.6772C21.9642 18.6772 20.4912 18.0673 19.4048 16.9817L3.86007 1.4565C3.72033 1.31656 3.63383 1.13223 3.61548 0.935317C3.59713 0.738405 3.6481 0.541265 3.75958 0.377916C3.87106 0.214567 4.03606 0.0952547 4.22611 0.040569C4.41617 -0.0141167 4.61935 -0.00074577 4.8006 0.0783744Z"
            fill="#08BC51" />
        <path
            d="M0.0783591 4.80058C8.62797 17.8634 9.35296 27.0074 1.54139 40.7821C1.47464 40.9636 1.47236 41.1625 1.53493 41.3455C1.59749 41.5285 1.7211 41.6844 1.88501 41.787C2.04892 41.8897 2.24314 41.9328 2.43508 41.9092C2.62702 41.8855 2.80499 41.7966 2.93912 41.6573L16.9816 27.5952C18.0673 26.5088 18.6771 25.0358 18.6771 23.5C18.6771 21.9642 18.0673 20.4912 16.9816 19.4048L1.45649 3.86006C1.31654 3.72032 1.13221 3.63381 0.935301 3.61546C0.73839 3.59712 0.54125 3.64808 0.377901 3.75956C0.214551 3.87104 0.0952395 4.03604 0.0405538 4.2261C-0.0141319 4.41615 -0.000761029 4.61933 0.0783591 4.80058Z"
            fill="#08BC51" />
        <path
            d="M23.5 25.688C24.7084 25.688 25.688 24.7084 25.688 23.5C25.688 22.2916 24.7084 21.312 23.5 21.312C22.2916 21.312 21.312 22.2916 21.312 23.5C21.312 24.7084 22.2916 25.688 23.5 25.688Z"
            fill="#08BC51" />
    </g>
    <defs>
        <clipPath id="clip0_27_1672">
            <rect width="47" height="47" fill="white" />
        </clipPath>
    </defs>
</svg>
