<svg width="24" height="24" viewBox="0 0 24 24" fill="none" xmlns="http://www.w3.org/2000/svg">
    <g clip-path="url(#clip0_27_1672)">
        <path
            d="M23.96 21.552C19.5942 14.8816 19.224 10.2123 23.2162 3.17843C23.2479 3.08608 23.2475 2.98572 23.2151 2.89363C23.1826 2.80153 23.12 2.72308 23.0374 2.67098C22.9549 2.61888 22.8571 2.59619 22.76 2.60657C22.6629 2.61695 22.5722 2.6598 22.5025 2.72818L15.3185 9.90884C14.7641 10.4636 14.4527 11.2157 14.4527 12C14.4527 12.7843 14.7641 13.5364 15.3185 14.0912L23.2562 22.0289C23.3277 22.0991 23.4212 22.1424 23.5209 22.1514C23.6207 22.1605 23.7205 22.1347 23.8034 22.0786C23.8863 22.0224 23.9472 21.9392 23.9757 21.8432C24.0042 21.7472 23.9987 21.6443 23.96 21.552Z"
            fill="#08BC51" />
        <path
            d="M21.5519 23.96C14.8816 19.5942 10.2123 19.224 3.17839 23.2162C3.08603 23.2479 2.98568 23.2475 2.89358 23.2151C2.80148 23.1826 2.72303 23.1201 2.67094 23.0375C2.61884 22.9549 2.59614 22.8571 2.60652 22.76C2.6169 22.663 2.65976 22.5722 2.72814 22.5025L9.90879 15.3185C10.4635 14.7641 11.2157 14.4527 12 14.4527C12.7842 14.4527 13.5364 14.7641 14.0911 15.3185L22.0289 23.2563C22.0991 23.3277 22.1424 23.4212 22.1514 23.521C22.1605 23.6207 22.1347 23.7205 22.0785 23.8034C22.0223 23.8863 21.9392 23.9472 21.8432 23.9757C21.7472 24.0043 21.6443 23.9987 21.5519 23.96Z"
            fill="#08BC51" />
        <path
            d="M2.45134 0.0400255C9.12171 4.40578 13.791 4.77599 20.8249 0.787107C20.9176 0.753021 21.0191 0.751854 21.1126 0.783804C21.206 0.815753 21.2856 0.878874 21.338 0.96257C21.3904 1.04627 21.4125 1.14544 21.4004 1.24346C21.3883 1.34147 21.3429 1.43235 21.2718 1.50084L14.0911 8.67149C13.5364 9.22586 12.7842 9.53728 12 9.53728C11.2157 9.53728 10.4635 9.22586 9.90881 8.67149L1.97107 0.74375C1.89971 0.67229 1.85554 0.578164 1.84617 0.477613C1.8368 0.377062 1.86283 0.276395 1.91975 0.192983C1.97668 0.10957 2.06093 0.0486453 2.15798 0.0207206C2.25503 -0.00720396 2.35878 -0.000376273 2.45134 0.0400255Z"
            fill="#08BC51" />
        <path
            d="M0.039995 2.45137C4.40575 9.12174 4.77596 13.791 0.787077 20.8249C0.75299 20.9176 0.751824 21.0192 0.783773 21.1126C0.815723 21.2061 0.878843 21.2857 0.96254 21.3381C1.04624 21.3905 1.14541 21.4125 1.24342 21.4004C1.34144 21.3884 1.43231 21.343 1.50081 21.2718L8.67146 14.0912C9.22583 13.5364 9.53725 12.7843 9.53725 12C9.53725 11.2157 9.22583 10.4636 8.67146 9.90884L0.743719 1.9711C0.67226 1.89974 0.578133 1.85557 0.477582 1.8462C0.377032 1.83683 0.276365 1.86286 0.192952 1.91978C0.10954 1.97671 0.0486147 2.06096 0.0206901 2.15801C-0.00723447 2.25506 -0.000406791 2.35881 0.039995 2.45137Z"
            fill="#08BC51" />
        <path
            d="M12 13.1173C12.617 13.1173 13.1173 12.6171 13.1173 12C13.1173 11.3829 12.617 10.8827 12 10.8827C11.3829 10.8827 10.8827 11.3829 10.8827 12C10.8827 12.6171 11.3829 13.1173 12 13.1173Z"
            fill="#08BC51" />
    </g>
    <defs>
        <clipPath id="clip0_27_1672">
            <rect width="24" height="24" fill="white" />
        </clipPath>
    </defs>
</svg>
