<svg width="127" height="38" viewBox="0 0 127 38" fill="none" xmlns="http://www.w3.org/2000/svg">
    <path
        d="M42.2864 27.6094L48.2161 17.6947L43.6862 10.3497H47.6912L49.2271 12.7853C49.4604 13.156 49.6937 13.5524 49.927 13.9743C50.1732 14.3962 50.4389 14.8948 50.7241 15.4701C50.9963 14.882 51.249 14.377 51.4823 13.9551C51.7156 13.5332 51.9554 13.1368 52.2016 12.7661L53.757 10.3497H57.5676L53.096 17.5988L59.084 27.6094H55.0207L51.9295 22.4315C51.7221 22.0735 51.5147 21.7027 51.3073 21.3192C51.1 20.9356 50.8731 20.5201 50.6269 20.0727C50.3806 20.5201 50.1538 20.9356 49.9464 21.3192C49.752 21.7027 49.5446 22.0735 49.3243 22.4315L46.233 27.6094H42.2864Z"
        fill="#08BC51" />
    <path
        d="M65.8485 27.9929C64.5394 27.9929 63.3859 27.7244 62.3879 27.1875C61.3899 26.6505 60.6122 25.9154 60.0549 24.9821C59.4976 24.036 59.2189 22.9557 59.2189 21.7411C59.2189 20.5777 59.4911 19.5485 60.0354 18.6535C60.5798 17.7458 61.3121 17.0298 62.2324 16.5057C63.1656 15.9815 64.196 15.7194 65.3236 15.7194C66.4771 15.7194 67.5075 15.9815 68.4148 16.5057C69.3221 17.0171 70.035 17.7202 70.5534 18.6152C71.0848 19.5101 71.3505 20.5265 71.3505 21.6644V22.8342H64.2348C63.9108 22.8342 63.5997 22.815 63.3016 22.7767C63.0035 22.7383 62.7054 22.6936 62.4073 22.6424C62.5629 23.4095 62.9452 24.036 63.5544 24.5218C64.1765 24.9948 64.9671 25.2314 65.9263 25.2314C66.6651 25.2314 67.3261 25.0843 67.9093 24.7903C68.5055 24.4962 68.9916 24.1319 69.3675 23.6972L70.1062 26.6888C69.523 27.1235 68.862 27.4495 68.1232 27.6669C67.3974 27.8842 66.6391 27.9929 65.8485 27.9929ZM62.3296 20.6288C62.9776 20.4882 63.6127 20.4178 64.2348 20.4178H66.2957C66.6586 20.4178 67.002 20.4306 67.3261 20.4562C67.6501 20.4818 67.9547 20.5265 68.2398 20.5904C68.0454 19.9001 67.689 19.3567 67.1705 18.9604C66.6651 18.564 66.0364 18.3659 65.2847 18.3659C64.5718 18.3659 63.9497 18.5704 63.4183 18.9795C62.8998 19.3759 62.5369 19.9256 62.3296 20.6288Z"
        fill="#08BC51" />
    <path
        d="M73.226 27.6094V16.1029H76.2589V17.3686C76.6737 16.8317 77.1856 16.4226 77.7948 16.1413C78.404 15.86 79.0585 15.7194 79.7584 15.7194C80.5879 15.7194 81.3591 15.9176 82.072 16.3139C82.7978 16.6974 83.3811 17.2664 83.8217 18.0207C84.2754 18.7622 84.5022 19.6635 84.5022 20.7247V27.6094H81.1194V21.1658C81.1194 20.5265 80.9249 19.9576 80.5361 19.459C80.1473 18.9604 79.5899 18.7111 78.8641 18.7111C78.2809 18.7111 77.7559 18.9092 77.2893 19.3056C76.8357 19.6891 76.6089 20.2964 76.6089 21.1274V27.6094H73.226Z"
        fill="#08BC51" />
    <path
        d="M86.8413 27.6094V16.1029H89.8742V18.0782C90.276 17.4134 90.7815 16.902 91.3906 16.544C92.0128 16.1733 92.7386 15.9879 93.5681 15.9879L94.3069 18.9412C94.0606 18.8645 93.782 18.8261 93.4709 18.8261C92.4988 18.8261 91.7147 19.1394 91.1185 19.7658C90.5222 20.3795 90.2241 21.2617 90.2241 22.4123V27.6094H86.8413Z"
        fill="#08BC51" />
    <path
        d="M100.648 27.9162C99.5722 27.9162 98.5936 27.6413 97.7122 27.0916C96.8309 26.5418 96.1245 25.8131 95.5931 24.9054C95.0746 23.9848 94.8154 22.9684 94.8154 21.8562C94.8154 20.7439 95.0746 19.7275 95.5931 18.807C96.1245 17.8864 96.8309 17.1577 97.7122 16.6207C98.5936 16.071 99.5722 15.7961 100.648 15.7961C101.4 15.7961 102.087 15.9303 102.709 16.1988C103.331 16.4545 103.862 16.8125 104.303 17.2728V16.1029H107.219V27.6094H104.303V26.4395C103.862 26.8998 103.331 27.2642 102.709 27.5326C102.087 27.7883 101.4 27.9162 100.648 27.9162ZM101.056 24.9821C101.626 24.9821 102.145 24.8414 102.612 24.5602C103.078 24.2789 103.448 23.9017 103.72 23.4287C104.005 22.9557 104.147 22.4315 104.147 21.8562C104.147 21.2808 104.005 20.7566 103.72 20.2836C103.448 19.8106 103.078 19.4334 102.612 19.1521C102.145 18.8709 101.626 18.7302 101.056 18.7302C100.486 18.7302 99.9675 18.8709 99.5009 19.1521C99.0343 19.4334 98.6584 19.8106 98.3732 20.2836C98.1011 20.7566 97.965 21.2808 97.965 21.8562C97.965 22.4315 98.1011 22.9557 98.3732 23.4287C98.6584 23.9017 99.0343 24.2789 99.5009 24.5602C99.9675 24.8414 100.486 24.9821 101.056 24.9821Z"
        fill="#08BC51" />
    <path
        d="M115.048 27.9162C113.959 27.9162 112.974 27.6413 112.093 27.0916C111.212 26.5418 110.505 25.8131 109.974 24.9054C109.455 23.9848 109.196 22.9684 109.196 21.8562C109.196 20.7439 109.455 19.7275 109.974 18.807C110.505 17.8864 111.212 17.1577 112.093 16.6207C112.974 16.071 113.959 15.7961 115.048 15.7961C115.67 15.7961 116.247 15.8856 116.778 16.0646C117.31 16.2436 117.789 16.4993 118.217 16.8317V9.19909H121.6V27.6094H118.684V26.4779C118.243 26.9254 117.712 27.277 117.09 27.5326C116.467 27.7883 115.787 27.9162 115.048 27.9162ZM115.437 24.9821C116.007 24.9821 116.526 24.8414 116.992 24.5602C117.459 24.2789 117.828 23.9017 118.1 23.4287C118.386 22.9557 118.528 22.4315 118.528 21.8562C118.528 21.2808 118.386 20.7566 118.1 20.2836C117.828 19.8106 117.459 19.4334 116.992 19.1521C116.526 18.8709 116.007 18.7302 115.437 18.7302C114.867 18.7302 114.348 18.8709 113.882 19.1521C113.415 19.4334 113.039 19.8106 112.754 20.2836C112.482 20.7566 112.346 21.2808 112.346 21.8562C112.346 22.4315 112.482 22.9557 112.754 23.4287C113.039 23.9017 113.415 24.2789 113.882 24.5602C114.348 24.8414 114.867 24.9821 115.437 24.9821Z"
        fill="#08BC51" />
    <path
        d="M38.4696 34.1323C31.4589 23.5664 30.8644 16.1703 37.2753 5.0286C37.3262 4.88231 37.3255 4.72335 37.2734 4.57747C37.2213 4.43158 37.1208 4.30732 36.9882 4.2248C36.8556 4.14227 36.6986 4.10632 36.5427 4.12277C36.3868 4.13921 36.2411 4.20709 36.1292 4.3154L24.5929 15.6896C23.7026 16.5683 23.2025 17.7597 23.2025 19.002C23.2025 20.2442 23.7026 21.4357 24.5929 22.3144L37.3396 34.8878C37.4543 34.9989 37.6045 35.0675 37.7646 35.0819C37.9248 35.0962 38.085 35.0554 38.2182 34.9664C38.3513 34.8774 38.4491 34.7457 38.4949 34.5936C38.5407 34.4416 38.5318 34.2786 38.4696 34.1323Z"
        fill="#08BC51" />
    <path
        d="M34.6028 37.9466C23.8913 31.0312 16.3932 30.4448 5.09791 36.7685C4.9496 36.8187 4.78845 36.818 4.64056 36.7666C4.49267 36.7153 4.36669 36.6161 4.28303 36.4853C4.19937 36.3545 4.16292 36.1997 4.17959 36.0459C4.19626 35.8921 4.26508 35.7483 4.37489 35.6379L15.9058 24.2585C16.7966 23.3804 18.0045 22.8871 19.2639 22.8871C20.5233 22.8871 21.7311 23.3804 22.6219 24.2585L35.3686 36.8319C35.4814 36.945 35.5509 37.0932 35.5654 37.2511C35.58 37.4091 35.5386 37.5672 35.4484 37.6985C35.3581 37.8298 35.2246 37.9263 35.0705 37.9715C34.9163 38.0167 34.7511 38.0079 34.6028 37.9466Z"
        fill="#08BC51" />
    <path
        d="M3.93036 0.0573579C14.6419 6.97272 22.1399 7.55913 33.4352 1.24074C33.584 1.18674 33.7472 1.18489 33.8972 1.2355C34.0473 1.28611 34.1751 1.38609 34.2593 1.51867C34.3434 1.65124 34.3788 1.80834 34.3594 1.96359C34.34 2.11884 34.2671 2.26279 34.1529 2.37128L22.6219 13.7296C21.7311 14.6077 20.5233 15.101 19.2639 15.101C18.0045 15.101 16.7966 14.6077 15.9058 13.7296L3.15913 1.17206C3.04454 1.05886 2.97361 0.909769 2.95856 0.750496C2.94352 0.591224 2.98531 0.431768 3.07672 0.299642C3.16814 0.167517 3.30344 0.0710116 3.45928 0.026779C3.61513 -0.0174535 3.78174 -0.0066385 3.93036 0.0573579Z"
        fill="#08BC51" />
    <path
        d="M0.0581485 3.87692C7.06883 14.4428 7.66332 21.8389 1.25784 32.9806C1.2031 33.1274 1.20123 33.2883 1.25253 33.4363C1.30384 33.5843 1.4052 33.7104 1.5396 33.7935C1.674 33.8765 1.83327 33.9113 1.99066 33.8922C2.14805 33.8731 2.29398 33.8012 2.40397 33.6885L13.9188 22.3144C14.8091 21.4357 15.3092 20.2442 15.3092 19.002C15.3092 17.7597 14.8091 16.5683 13.9188 15.6896L1.18821 3.11618C1.07346 3.00315 0.922309 2.93318 0.760841 2.91834C0.599374 2.9035 0.437719 2.94472 0.303773 3.03489C0.169826 3.12506 0.0719904 3.25852 0.0271481 3.41225C-0.0176941 3.56597 -0.00673 3.73032 0.0581485 3.87692Z"
        fill="#08BC51" />
    <path
        d="M19.2639 20.7717C20.2548 20.7717 21.0581 19.9794 21.0581 19.002C21.0581 18.0245 20.2548 17.2322 19.2639 17.2322C18.273 17.2322 17.4697 18.0245 17.4697 19.002C17.4697 19.9794 18.273 20.7717 19.2639 20.7717Z"
        fill="#08BC51" />
</svg>
